    0
SECTION
    2
HEADER
    9
$ANGBASE
   50
0.000000
    9
$ANGDIR
   70
0
    9
$AUNITS
   70
0
    9
$EXTMIN
   10
-0.174262
   20
0.000000
   30
0.000000
    9
$EXTMAX
   10
0.174262
   20
0.479000
   30
0.000000
    0
ENDSEC
    0
SECTION
    2
ENTITIES
    0
LINE
    8
0
   10
0.000000
   20
0.060000
   30
0.000000
   11
0.075000
   21
0.060000
   31
0.000000
    0
LINE
    8
0
   10
0.075000
   20
0.060000
   30
0.000000
   11
0.075000
   21
0.077000
   31
0.000000
    0
LINE
    8
0
   10
0.070000
   20
0.095000
   30
0.000000
   11
0.069262
   21
0.100000
   31
0.000000
    0
LINE
    8
0
   10
0.030000
   20
0.405000
   30
0.000000
   11
0.030000
   21
0.440000
   31
0.000000
    0
LINE
    8
0
   10
0.030000
   20
0.440000
   30
0.000000
   11
0.000000
   21
0.440000
   31
0.000000
    0
ARC
    8
0
   10
0.030000
   20
0.400000
   30
0.000000
   40
0.005000
   50
89.999979
   51
180.000000
    0
ARC
    8
0
   10
0.075000
   20
0.095000
   30
0.000000
   40
0.005000
   50
180.000000
   51
270.000000
    0
LINE
    8
0
   10
-0.075000
   20
0.060000
   30
0.000000
   11
0.000000
   21
0.060000
   31
0.000000
    0
LINE
    8
0
   10
-0.075000
   20
0.090000
   30
0.000000
   11
-0.075000
   21
0.077000
   31
0.000000
    0
LINE
    8
0
   10
-0.025000
   20
0.400000
   30
0.000000
   11
-0.025148
   21
0.399000
   31
0.000000
    0
LINE
    8
0
   10
-0.030000
   20
0.440000
   30
0.000000
   11
-0.030000
   21
0.405000
   31
0.000000
    0
LINE
    8
0
   10
0.000000
   20
0.440000
   30
0.000000
   11
-0.030000
   21
0.440000
   31
0.000000
    0
ARC
    8
0
   10
-0.030000
   20
0.400000
   30
0.000000
   40
0.005000
   50
0.000000
   51
90.000021
    0
ARC
    8
0
   10
-0.075000
   20
0.095000
   30
0.000000
   40
0.005000
   50
270.000000
   51
0.000000
    0
LINE
    8
0
   10
0.069262
   20
0.100000
   30
0.000000
   11
0.065869
   21
0.123000
   31
0.000000
    0
LINE
    8
0
   10
-0.069262
   20
0.100000
   30
0.000000
   11
-0.070000
   21
0.095000
   31
0.000000
    0
LINE
    8
0
   10
-0.065869
   20
0.123000
   30
0.000000
   11
-0.069262
   21
0.100000
   31
0.000000
    0
LINE
    8
0
   10
0.065869
   20
0.123000
   30
0.000000
   11
0.062475
   21
0.146000
   31
0.000000
    0
LINE
    8
0
   10
-0.075000
   20
0.040000
   30
0.000000
   11
-0.075000
   21
0.060000
   31
0.000000
    0
LINE
    8
0
   10
-0.062475
   20
0.146000
   30
0.000000
   11
-0.065869
   21
0.123000
   31
0.000000
    0
LINE
    8
0
   10
0.060148
   20
0.399000
   30
0.000000
   11
0.104262
   21
0.100000
   31
0.000000
    0
LINE
    8
0
   10
0.062475
   20
0.146000
   30
0.000000
   11
0.059082
   21
0.169000
   31
0.000000
    0
ARC
    8
0
   10
0.082262
   20
0.100000
   30
0.000000
   40
0.010000
   50
180.000000
   51
0.000000
    0
ARC
    8
0
   10
0.082262
   20
0.100000
   30
0.000000
   40
0.010000
   50
0.000000
   51
180.000000
    0
ARC
    8
0
   10
0.082262
   20
0.100000
   30
0.000000
   40
0.005000
   50
180.000000
   51
0.000000
    0
ARC
    8
0
   10
0.082262
   20
0.100000
   30
0.000000
   40
0.005000
   50
0.000000
   51
180.000000
    0
ARC
    8
0
   10
0.075475
   20
0.146000
   30
0.000000
   40
0.010000
   50
0.000000
   51
180.000000
    0
LINE
    8
0
   10
0.060148
   20
0.479000
   30
0.000000
   11
0.060148
   21
0.399000
   31
0.000000
    0
ARC
    8
0
   10
0.075475
   20
0.146000
   30
0.000000
   40
0.010000
   50
180.000000
   51
0.000000
    0
LINE
    8
0
   10
-0.059082
   20
0.169000
   30
0.000000
   11
-0.062475
   21
0.146000
   31
0.000000
    0
LINE
    8
0
   10
0.059082
   20
0.169000
   30
0.000000
   11
0.055689
   21
0.192000
   31
0.000000
    0
ARC
    8
0
   10
0.072082
   20
0.169000
   30
0.000000
   40
0.010000
   50
0.000000
   51
180.000000
    0
LINE
    8
0
   10
0.000000
   20
0.000000
   30
0.000000
   11
0.174262
   21
0.000000
   31
0.000000
    0
ARC
    8
0
   10
0.072082
   20
0.169000
   30
0.000000
   40
0.010000
   50
180.000000
   51
0.000000
    0
LINE
    8
0
   10
-0.055689
   20
0.192000
   30
0.000000
   11
-0.059082
   21
0.169000
   31
0.000000
    0
LINE
    8
0
   10
0.055689
   20
0.192000
   30
0.000000
   11
0.052295
   21
0.215000
   31
0.000000
    0
ARC
    8
0
   10
0.051721
   20
0.307000
   30
0.000000
   40
0.010000
   50
0.000000
   51
180.000000
    0
LINE
    8
0
   10
-0.075000
   20
0.040000
   30
0.000000
   11
0.075000
   21
0.040000
   31
0.000000
    0
ARC
    8
0
   10
0.051721
   20
0.307000
   30
0.000000
   40
0.010000
   50
180.000000
   51
0.000000
    0
LINE
    8
0
   10
-0.052295
   20
0.215000
   30
0.000000
   11
-0.055689
   21
0.192000
   31
0.000000
    0
LINE
    8
0
   10
0.052295
   20
0.215000
   30
0.000000
   11
0.048902
   21
0.238000
   31
0.000000
    0
ARC
    8
0
   10
0.061902
   20
0.238000
   30
0.000000
   40
0.005000
   50
180.000000
   51
0.000000
    0
ARC
    8
0
   10
-0.038148
   20
0.399000
   30
0.000000
   40
0.005000
   50
0.000000
   51
180.000000
    0
ARC
    8
0
   10
0.055115
   20
0.284000
   30
0.000000
   40
0.005000
   50
0.000000
   51
180.000000
    0
LINE
    8
0
   10
-0.048902
   20
0.238000
   30
0.000000
   11
-0.052295
   21
0.215000
   31
0.000000
    0
LINE
    8
0
   10
0.048902
   20
0.238000
   30
0.000000
   11
0.045508
   21
0.261000
   31
0.000000
    0
ARC
    8
0
   10
0.061902
   20
0.238000
   30
0.000000
   40
0.010000
   50
0.000000
   51
180.000000
    0
ARC
    8
0
   10
-0.038148
   20
0.399000
   30
0.000000
   40
0.010000
   50
180.000000
   51
0.000000
    0
ARC
    8
0
   10
0.055115
   20
0.284000
   30
0.000000
   40
0.005000
   50
180.000000
   51
0.000000
    0
LINE
    8
0
   10
-0.045508
   20
0.261000
   30
0.000000
   11
-0.048902
   21
0.238000
   31
0.000000
    0
LINE
    8
0
   10
0.045508
   20
0.261000
   30
0.000000
   11
0.042115
   21
0.284000
   31
0.000000
    0
ARC
    8
0
   10
0.061902
   20
0.238000
   30
0.000000
   40
0.010000
   50
180.000000
   51
0.000000
    0
ARC
    8
0
   10
-0.038088
   20
0.399019
   30
0.000000
   40
0.010059
   50
36.479393
   51
180.110846
    0
ARC
    8
0
   10
0.055115
   20
0.284000
   30
0.000000
   40
0.010000
   50
0.000000
   51
180.000000
    0
LINE
    8
0
   10
-0.042115
   20
0.284000
   30
0.000000
   11
-0.045508
   21
0.261000
   31
0.000000
    0
LINE
    8
0
   10
0.042115
   20
0.284000
   30
0.000000
   11
0.038721
   21
0.307000
   31
0.000000
    0
ARC
    8
0
   10
0.065295
   20
0.215000
   30
0.000000
   40
0.010000
   50
0.000000
   51
180.000000
    0
ARC
    8
0
   10
-0.038207
   20
0.399180
   30
0.000000
   40
0.010061
   50
358.973295
   51
35.341971
    0
ARC
    8
0
   10
0.055115
   20
0.284000
   30
0.000000
   40
0.010000
   50
180.000000
   51
0.000000
    0
LINE
    8
0
   10
-0.038721
   20
0.307000
   30
0.000000
   11
-0.042115
   21
0.284000
   31
0.000000
    0
LINE
    8
0
   10
0.038721
   20
0.307000
   30
0.000000
   11
0.035328
   21
0.330000
   31
0.000000
    0
ARC
    8
0
   10
0.065295
   20
0.215000
   30
0.000000
   40
0.010000
   50
180.000000
   51
0.000000
    0
ARC
    8
0
   10
-0.038148
   20
0.399000
   30
0.000000
   40
0.005000
   50
180.000000
   51
0.000000
    0
ARC
    8
0
   10
0.058508
   20
0.261000
   30
0.000000
   40
0.005000
   50
0.000000
   51
180.000000
    0
LINE
    8
0
   10
-0.035328
   20
0.330000
   30
0.000000
   11
-0.038721
   21
0.307000
   31
0.000000
    0
LINE
    8
0
   10
0.035328
   20
0.330000
   30
0.000000
   11
0.031934
   21
0.353000
   31
0.000000
    0
ARC
    8
0
   10
0.068689
   20
0.192000
   30
0.000000
   40
0.005000
   50
0.000000
   51
180.000000
    0
ARC
    8
0
   10
-0.041541
   20
0.376000
   30
0.000000
   40
0.005000
   50
0.000000
   51
180.000000
    0
ARC
    8
0
   10
0.058508
   20
0.261000
   30
0.000000
   40
0.005000
   50
180.000000
   51
0.000000
    0
LINE
    8
0
   10
-0.031934
   20
0.353000
   30
0.000000
   11
-0.035328
   21
0.330000
   31
0.000000
    0
LINE
    8
0
   10
0.031934
   20
0.353000
   30
0.000000
   11
0.028541
   21
0.376000
   31
0.000000
    0
ARC
    8
0
   10
0.068689
   20
0.192000
   30
0.000000
   40
0.005000
   50
180.000000
   51
0.000000
    0
ARC
    8
0
   10
-0.041541
   20
0.376000
   30
0.000000
   40
0.005000
   50
180.000000
   51
0.000000
    0
ARC
    8
0
   10
0.058508
   20
0.261000
   30
0.000000
   40
0.010000
   50
0.000000
   51
180.000000
    0
LINE
    8
0
   10
-0.028541
   20
0.376000
   30
0.000000
   11
-0.031934
   21
0.353000
   31
0.000000
    0
LINE
    8
0
   10
0.028541
   20
0.376000
   30
0.000000
   11
0.025148
   21
0.399000
   31
0.000000
    0
ARC
    8
0
   10
0.068689
   20
0.192000
   30
0.000000
   40
0.010000
   50
0.000000
   51
180.000000
    0
ARC
    8
0
   10
-0.041541
   20
0.376000
   30
0.000000
   40
0.010000
   50
0.000000
   51
180.000000
    0
ARC
    8
0
   10
0.058508
   20
0.261000
   30
0.000000
   40
0.010000
   50
180.000000
   51
0.000000
    0
LINE
    8
0
   10
-0.025148
   20
0.399000
   30
0.000000
   11
-0.028541
   21
0.376000
   31
0.000000
    0
LINE
    8
0
   10
0.025148
   20
0.399000
   30
0.000000
   11
0.025000
   21
0.400000
   31
0.000000
    0
ARC
    8
0
   10
0.068689
   20
0.192000
   30
0.000000
   40
0.010000
   50
180.000000
   51
0.000000
    0
ARC
    8
0
   10
-0.041541
   20
0.376000
   30
0.000000
   40
0.010000
   50
180.000000
   51
0.000000
    0
ARC
    8
0
   10
0.061902
   20
0.238000
   30
0.000000
   40
0.005000
   50
0.000000
   51
180.000000
    0
ARC
    8
0
   10
0.078869
   20
0.123000
   30
0.000000
   40
0.010000
   50
180.000000
   51
0.000000
    0
ARC
    8
0
   10
0.078869
   20
0.123000
   30
0.000000
   40
0.010000
   50
0.000000
   51
180.000000
    0
ARC
    8
0
   10
0.078869
   20
0.123000
   30
0.000000
   40
0.005000
   50
180.000000
   51
0.000000
    0
ARC
    8
0
   10
0.078869
   20
0.123000
   30
0.000000
   40
0.005000
   50
0.000000
   51
180.000000
    0
ARC
    8
0
   10
0.075475
   20
0.146000
   30
0.000000
   40
0.005000
   50
180.000000
   51
0.000000
    0
ARC
    8
0
   10
0.075475
   20
0.146000
   30
0.000000
   40
0.005000
   50
0.000000
   51
180.000000
    0
ARC
    8
0
   10
0.072082
   20
0.169000
   30
0.000000
   40
0.005000
   50
180.000000
   51
0.000000
    0
ARC
    8
0
   10
0.072082
   20
0.169000
   30
0.000000
   40
0.005000
   50
0.000000
   51
180.000000
    0
ARC
    8
0
   10
0.051721
   20
0.307000
   30
0.000000
   40
0.005000
   50
180.000000
   51
0.000000
    0
ARC
    8
0
   10
0.051721
   20
0.307000
   30
0.000000
   40
0.005000
   50
0.000000
   51
180.000000
    0
ARC
    8
0
   10
0.048328
   20
0.330000
   30
0.000000
   40
0.010000
   50
180.000000
   51
0.000000
    0
ARC
    8
0
   10
0.048328
   20
0.330000
   30
0.000000
   40
0.010000
   50
0.000000
   51
180.000000
    0
ARC
    8
0
   10
0.048328
   20
0.330000
   30
0.000000
   40
0.005000
   50
180.000000
   51
0.000000
    0
ARC
    8
0
   10
0.048328
   20
0.330000
   30
0.000000
   40
0.005000
   50
0.000000
   51
180.000000
    0
ARC
    8
0
   10
0.044934
   20
0.353000
   30
0.000000
   40
0.010000
   50
180.000000
   51
0.000000
    0
ARC
    8
0
   10
0.044934
   20
0.353000
   30
0.000000
   40
0.010000
   50
0.000000
   51
180.000000
    0
ARC
    8
0
   10
0.044934
   20
0.353000
   30
0.000000
   40
0.005000
   50
180.000000
   51
0.000000
    0
ARC
    8
0
   10
0.044934
   20
0.353000
   30
0.000000
   40
0.005000
   50
0.000000
   51
180.000000
    0
ARC
    8
0
   10
0.041541
   20
0.376000
   30
0.000000
   40
0.010000
   50
180.000000
   51
0.000000
    0
ARC
    8
0
   10
0.041541
   20
0.376000
   30
0.000000
   40
0.010000
   50
0.000000
   51
180.000000
    0
ARC
    8
0
   10
0.041541
   20
0.376000
   30
0.000000
   40
0.005000
   50
180.000000
   51
0.000000
    0
ARC
    8
0
   10
0.041541
   20
0.376000
   30
0.000000
   40
0.005000
   50
0.000000
   51
180.000000
    0
ARC
    8
0
   10
0.038148
   20
0.399000
   30
0.000000
   40
0.005000
   50
180.000000
   51
0.000000
    0
ARC
    8
0
   10
0.038207
   20
0.399180
   30
0.000000
   40
0.010061
   50
144.658029
   51
181.026705
    0
ARC
    8
0
   10
0.038088
   20
0.399019
   30
0.000000
   40
0.010059
   50
359.889154
   51
143.520595
    0
ARC
    8
0
   10
0.038148
   20
0.399000
   30
0.000000
   40
0.010000
   50
180.000000
   51
0.000000
    0
ARC
    8
0
   10
0.038148
   20
0.399000
   30
0.000000
   40
0.005000
   50
0.000000
   51
180.000000
    0
ARC
    8
0
   10
0.065295
   20
0.215000
   30
0.000000
   40
0.005000
   50
180.000000
   51
0.000000
    0
ARC
    8
0
   10
0.065295
   20
0.215000
   30
0.000000
   40
0.005000
   50
0.000000
   51
180.000000
    0
ARC
    8
0
   10
0.088000
   20
0.077000
   30
0.000000
   40
0.010000
   50
0.000000
   51
180.000000
    0
LINE
    8
0
   10
0.075000
   20
0.077000
   30
0.000000
   11
0.075000
   21
0.090000
   31
0.000000
    0
ARC
    8
0
   10
-0.044934
   20
0.353000
   30
0.000000
   40
0.005000
   50
0.000000
   51
180.000000
    0
ARC
    8
0
   10
0.088000
   20
0.077000
   30
0.000000
   40
0.010000
   50
180.000000
   51
0.000000
    0
LINE
    8
0
   10
-0.075000
   20
0.077000
   30
0.000000
   11
-0.075000
   21
0.060000
   31
0.000000
    0
ARC
    8
0
   10
0.088000
   20
0.077000
   30
0.000000
   40
0.005000
   50
180.000000
   51
0.000000
    0
ARC
    8
0
   10
0.088000
   20
0.077000
   30
0.000000
   40
0.005000
   50
0.000000
   51
180.000000
    0
ARC
    8
0
   10
-0.082262
   20
0.100000
   30
0.000000
   40
0.010000
   50
180.000000
   51
0.000000
    0
ARC
    8
0
   10
-0.082262
   20
0.100000
   30
0.000000
   40
0.010000
   50
0.000000
   51
180.000000
    0
ARC
    8
0
   10
-0.082262
   20
0.100000
   30
0.000000
   40
0.005000
   50
180.000000
   51
0.000000
    0
ARC
    8
0
   10
-0.082262
   20
0.100000
   30
0.000000
   40
0.005000
   50
0.000000
   51
180.000000
    0
ARC
    8
0
   10
-0.075475
   20
0.146000
   30
0.000000
   40
0.010000
   50
0.000000
   51
180.000000
    0
ARC
    8
0
   10
-0.075475
   20
0.146000
   30
0.000000
   40
0.010000
   50
180.000000
   51
0.000000
    0
ARC
    8
0
   10
-0.072082
   20
0.169000
   30
0.000000
   40
0.010000
   50
0.000000
   51
180.000000
    0
ARC
    8
0
   10
-0.072082
   20
0.169000
   30
0.000000
   40
0.010000
   50
180.000000
   51
0.000000
    0
ARC
    8
0
   10
-0.065295
   20
0.215000
   30
0.000000
   40
0.010000
   50
0.000000
   51
180.000000
    0
ARC
    8
0
   10
-0.065295
   20
0.215000
   30
0.000000
   40
0.010000
   50
180.000000
   51
0.000000
    0
ARC
    8
0
   10
-0.068689
   20
0.192000
   30
0.000000
   40
0.005000
   50
0.000000
   51
180.000000
    0
ARC
    8
0
   10
-0.068689
   20
0.192000
   30
0.000000
   40
0.005000
   50
180.000000
   51
0.000000
    0
ARC
    8
0
   10
-0.068689
   20
0.192000
   30
0.000000
   40
0.010000
   50
0.000000
   51
180.000000
    0
ARC
    8
0
   10
-0.068689
   20
0.192000
   30
0.000000
   40
0.010000
   50
180.000000
   51
0.000000
    0
ARC
    8
0
   10
-0.078869
   20
0.123000
   30
0.000000
   40
0.010000
   50
180.000000
   51
0.000000
    0
ARC
    8
0
   10
-0.078869
   20
0.123000
   30
0.000000
   40
0.010000
   50
0.000000
   51
180.000000
    0
ARC
    8
0
   10
-0.078869
   20
0.123000
   30
0.000000
   40
0.005000
   50
180.000000
   51
0.000000
    0
ARC
    8
0
   10
-0.078869
   20
0.123000
   30
0.000000
   40
0.005000
   50
0.000000
   51
180.000000
    0
ARC
    8
0
   10
-0.075475
   20
0.146000
   30
0.000000
   40
0.005000
   50
180.000000
   51
0.000000
    0
ARC
    8
0
   10
-0.075475
   20
0.146000
   30
0.000000
   40
0.005000
   50
0.000000
   51
180.000000
    0
ARC
    8
0
   10
-0.072082
   20
0.169000
   30
0.000000
   40
0.005000
   50
180.000000
   51
0.000000
    0
ARC
    8
0
   10
-0.072082
   20
0.169000
   30
0.000000
   40
0.005000
   50
0.000000
   51
180.000000
    0
ARC
    8
0
   10
-0.065295
   20
0.215000
   30
0.000000
   40
0.005000
   50
180.000000
   51
0.000000
    0
ARC
    8
0
   10
-0.065295
   20
0.215000
   30
0.000000
   40
0.005000
   50
0.000000
   51
180.000000
    0
ARC
    8
0
   10
-0.088000
   20
0.077000
   30
0.000000
   40
0.010000
   50
0.000000
   51
180.000000
    0
ARC
    8
0
   10
-0.088000
   20
0.077000
   30
0.000000
   40
0.010000
   50
180.000000
   51
0.000000
    0
ARC
    8
0
   10
-0.088000
   20
0.077000
   30
0.000000
   40
0.005000
   50
180.000000
   51
0.000000
    0
ARC
    8
0
   10
-0.088000
   20
0.077000
   30
0.000000
   40
0.005000
   50
0.000000
   51
180.000000
    0
ARC
    8
0
   10
-0.051721
   20
0.307000
   30
0.000000
   40
0.010000
   50
0.000000
   51
180.000000
    0
ARC
    8
0
   10
-0.051721
   20
0.307000
   30
0.000000
   40
0.010000
   50
180.000000
   51
0.000000
    0
ARC
    8
0
   10
-0.061902
   20
0.238000
   30
0.000000
   40
0.005000
   50
180.000000
   51
0.000000
    0
ARC
    8
0
   10
-0.055115
   20
0.284000
   30
0.000000
   40
0.005000
   50
0.000000
   51
180.000000
    0
ARC
    8
0
   10
-0.061902
   20
0.238000
   30
0.000000
   40
0.010000
   50
0.000000
   51
180.000000
    0
ARC
    8
0
   10
-0.055115
   20
0.284000
   30
0.000000
   40
0.005000
   50
180.000000
   51
0.000000
    0
ARC
    8
0
   10
-0.061902
   20
0.238000
   30
0.000000
   40
0.010000
   50
180.000000
   51
0.000000
    0
ARC
    8
0
   10
-0.055115
   20
0.284000
   30
0.000000
   40
0.010000
   50
0.000000
   51
180.000000
    0
ARC
    8
0
   10
-0.055115
   20
0.284000
   30
0.000000
   40
0.010000
   50
180.000000
   51
0.000000
    0
ARC
    8
0
   10
-0.058508
   20
0.261000
   30
0.000000
   40
0.005000
   50
0.000000
   51
180.000000
    0
ARC
    8
0
   10
-0.058508
   20
0.261000
   30
0.000000
   40
0.005000
   50
180.000000
   51
0.000000
    0
ARC
    8
0
   10
-0.058508
   20
0.261000
   30
0.000000
   40
0.010000
   50
0.000000
   51
180.000000
    0
ARC
    8
0
   10
-0.058508
   20
0.261000
   30
0.000000
   40
0.010000
   50
180.000000
   51
0.000000
    0
ARC
    8
0
   10
-0.061902
   20
0.238000
   30
0.000000
   40
0.005000
   50
0.000000
   51
180.000000
    0
ARC
    8
0
   10
-0.051721
   20
0.307000
   30
0.000000
   40
0.005000
   50
180.000000
   51
0.000000
    0
ARC
    8
0
   10
-0.051721
   20
0.307000
   30
0.000000
   40
0.005000
   50
0.000000
   51
180.000000
    0
ARC
    8
0
   10
-0.048328
   20
0.330000
   30
0.000000
   40
0.010000
   50
180.000000
   51
0.000000
    0
ARC
    8
0
   10
-0.048328
   20
0.330000
   30
0.000000
   40
0.010000
   50
0.000000
   51
180.000000
    0
ARC
    8
0
   10
-0.048328
   20
0.330000
   30
0.000000
   40
0.005000
   50
180.000000
   51
0.000000
    0
ARC
    8
0
   10
-0.048328
   20
0.330000
   30
0.000000
   40
0.005000
   50
0.000000
   51
180.000000
    0
ARC
    8
0
   10
-0.044934
   20
0.353000
   30
0.000000
   40
0.010000
   50
180.000000
   51
0.000000
    0
ARC
    8
0
   10
-0.044934
   20
0.353000
   30
0.000000
   40
0.010000
   50
0.000000
   51
180.000000
    0
ARC
    8
0
   10
-0.044934
   20
0.353000
   30
0.000000
   40
0.005000
   50
180.000000
   51
0.000000
    0
LINE
    8
0
   10
0.104262
   20
0.100000
   30
0.000000
   11
0.114262
   21
0.100000
   31
0.000000
    0
LINE
    8
0
   10
0.114262
   20
0.040000
   30
0.000000
   11
0.174262
   21
0.040000
   31
0.000000
    0
LINE
    8
0
   10
0.114262
   20
0.100000
   30
0.000000
   11
0.114262
   21
0.040000
   31
0.000000
    0
LINE
    8
0
   10
-0.174262
   20
0.040000
   30
0.000000
   11
-0.114262
   21
0.040000
   31
0.000000
    0
LINE
    8
0
   10
0.075000
   20
0.040000
   30
0.000000
   11
0.114262
   21
0.040000
   31
0.000000
    0
LINE
    8
0
   10
0.075000
   20
0.060000
   30
0.000000
   11
0.075000
   21
0.040000
   31
0.000000
    0
LINE
    8
0
   10
-0.174262
   20
0.000000
   30
0.000000
   11
0.000000
   21
0.000000
   31
0.000000
    0
LINE
    8
0
   10
0.174262
   20
0.000000
   30
0.000000
   11
0.174262
   21
0.040000
   31
0.000000
    0
LINE
    8
0
   10
-0.114262
   20
0.040000
   30
0.000000
   11
-0.075000
   21
0.040000
   31
0.000000
    0
LINE
    8
0
   10
-0.104262
   20
0.100000
   30
0.000000
   11
-0.060148
   21
0.399000
   31
0.000000
    0
LINE
    8
0
   10
-0.060148
   20
0.399000
   30
0.000000
   11
-0.060148
   21
0.479000
   31
0.000000
    0
LINE
    8
0
   10
-0.114262
   20
0.100000
   30
0.000000
   11
-0.104262
   21
0.100000
   31
0.000000
    0
LINE
    8
0
   10
-0.114262
   20
0.040000
   30
0.000000
   11
-0.114262
   21
0.100000
   31
0.000000
    0
LINE
    8
0
   10
-0.174262
   20
0.040000
   30
0.000000
   11
-0.174262
   21
0.000000
   31
0.000000
    0
LINE
    8
0
   10
-0.060148
   20
0.479000
   30
0.000000
   11
-0.030000
   21
0.479000
   31
0.000000
    0
LINE
    8
0
   10
-0.030000
   20
0.479000
   30
0.000000
   11
0.030000
   21
0.479000
   31
0.000000
    0
LINE
    8
0
   10
-0.030000
   20
0.440000
   30
0.000000
   11
-0.030000
   21
0.479000
   31
0.000000
    0
LINE
    8
0
   10
0.030000
   20
0.440000
   30
0.000000
   11
0.030000
   21
0.479000
   31
0.000000
    0
LINE
    8
0
   10
0.030000
   20
0.479000
   30
0.000000
   11
0.060148
   21
0.479000
   31
0.000000
    0
POINT
    8
0
   10
0.082262
   20
0.100000
    0
POINT
    8
0
   10
0.044934
   20
0.353000
    0
POINT
    8
0
   10
0.041541
   20
0.376000
    0
POINT
    8
0
   10
0.078869
   20
0.123000
    0
POINT
    8
0
   10
0.075475
   20
0.146000
    0
POINT
    8
0
   10
0.072082
   20
0.169000
    0
POINT
    8
0
   10
0.048328
   20
0.330000
    0
POINT
    8
0
   10
0.051721
   20
0.307000
    0
POINT
    8
0
   10
0.055115
   20
0.284000
    0
POINT
    8
0
   10
0.058508
   20
0.261000
    0
POINT
    8
0
   10
0.061902
   20
0.238000
    0
POINT
    8
0
   10
0.065295
   20
0.215000
    0
POINT
    8
0
   10
0.068689
   20
0.192000
    0
POINT
    8
0
   10
0.038148
   20
0.399000
    0
POINT
    8
0
   10
0.088000
   20
0.077000
    0
POINT
    8
0
   10
-0.082262
   20
0.100000
    0
POINT
    8
0
   10
-0.078869
   20
0.123000
    0
POINT
    8
0
   10
-0.075475
   20
0.146000
    0
POINT
    8
0
   10
-0.072082
   20
0.169000
    0
POINT
    8
0
   10
-0.065295
   20
0.215000
    0
POINT
    8
0
   10
-0.068689
   20
0.192000
    0
POINT
    8
0
   10
-0.088000
   20
0.077000
    0
POINT
    8
0
   10
-0.044934
   20
0.353000
    0
POINT
    8
0
   10
-0.041541
   20
0.376000
    0
POINT
    8
0
   10
-0.048328
   20
0.330000
    0
POINT
    8
0
   10
-0.051721
   20
0.307000
    0
POINT
    8
0
   10
-0.055115
   20
0.284000
    0
POINT
    8
0
   10
-0.058508
   20
0.261000
    0
POINT
    8
0
   10
-0.061902
   20
0.238000
    0
POINT
    8
0
   10
-0.038148
   20
0.399000
    0
ENDSEC
    0
EOF
